<?xml version="1.0" encoding="UTF-8"?>
<svg width="22px" height="22px" viewBox="0 0 22 22" version="1.1" xmlns="http://www.w3.org/2000/svg" xmlns:xlink="http://www.w3.org/1999/xlink">
    <!-- Generator: Sketch 54.1 (76490) - https://sketchapp.com -->
    <title>help</title>
    <desc>Created with Sketch.</desc>
    <g id="Page-1" stroke="none" stroke-width="1" fill="none" fill-rule="evenodd">
        <g id="light" transform="translate(-156.000000, 0.000000)" fill="#000000" fill-rule="nonzero">
            <g id="help" transform="translate(156.000000, 0.000000)">
                <path d="M11,21.46 C5.22310152,21.46 0.54,16.7768985 0.54,11 C0.54,5.22310152 5.22310152,0.54 11,0.54 C16.7768985,0.54 21.46,5.22310152 21.46,11 C21.4544872,16.7746135 16.7746135,21.4544872 11,21.46 L11,21.46 Z M11,1.54 C5.77538627,1.54 1.54,5.77538627 1.54,11 C1.54,16.2246137 5.77538627,20.46 11,20.46 C16.2246137,20.46 20.46,16.2246137 20.46,11 C20.4544883,5.77767099 16.222329,1.5455117 11,1.54 Z" id="Shape"></path>
                <path d="M11,15.52 C8.50367293,15.52 6.48,13.4963271 6.48,11 C6.48,8.50367293 8.50367293,6.48 11,6.48 C13.4963271,6.48 15.52,8.50367293 15.52,11 C15.5145004,13.4940455 13.4940455,15.5145004 11,15.52 Z M11,7.52 C9.57267267,7.52009216 8.28669482,8.38210516 7.74429276,9.7023564 C7.20189069,11.0226076 7.51045122,12.5397088 8.52547476,13.5431979 C9.5404983,14.5466871 11.0610266,14.8378898 12.374993,14.280435 C13.6889593,13.7229803 14.5362196,12.4272352 14.52,11 C14.514507,9.05823751 12.9417625,7.485493 11,7.48 L11,7.52 Z" id="Shape"></path>
                <path d="M11,7.48 C10.7238576,7.48 10.5,7.25614237 10.5,6.98 L10.5,1 C10.5,0.723857625 10.7238576,0.5 11,0.5 C11.2761424,0.5 11.5,0.723857625 11.5,1 L11.5,7 C11.4892594,7.26830196 11.2685168,7.4802149 11,7.48 Z" id="Path"></path>
                <path d="M11,21.46 C10.7238576,21.46 10.5,21.2361424 10.5,20.96 L10.5,15 C10.5,14.7238576 10.7238576,14.5 11,14.5 C11.2761424,14.5 11.5,14.7238576 11.5,15 L11.5,21 C11.4791015,21.260411 11.2612469,21.4608372 11,21.46 Z" id="Path"></path>
                <path d="M7,11.5 L1,11.5 C0.723857625,11.5 0.5,11.2761424 0.5,11 C0.5,10.7238576 0.723857625,10.5 1,10.5 L7,10.5 C7.27614237,10.5 7.5,10.7238576 7.5,11 C7.5,11.2761424 7.27614237,11.5 7,11.5 Z" id="Path"></path>
                <path d="M21,11.5 L15,11.5 C14.7238576,11.5 14.5,11.2761424 14.5,11 C14.5,10.7238576 14.7238576,10.5 15,10.5 L21,10.5 C21.2761424,10.5 21.5,10.7238576 21.5,11 C21.5,11.2761424 21.2761424,11.5 21,11.5 Z" id="Path"></path>
            </g>
        </g>
    </g>
</svg>