<svg width="188" height="40" viewBox="0 0 188 40" fill="none" xmlns="http://www.w3.org/2000/svg">
<path d="M13.392 39.504C11.04 39.504 8.976 38.964 7.2 37.884C5.424 36.804 4.032 35.28 3.024 33.312C2.04 31.344 1.548 29.052 1.548 26.436C1.548 23.82 2.04 21.54 3.024 19.596C4.032 17.628 5.424 16.104 7.2 15.024C8.976 13.944 11.04 13.404 13.392 13.404C16.008 13.404 18.264 14.052 20.16 15.348C22.08 16.644 23.46 18.444 24.3 20.748L20.412 22.152C19.836 20.64 18.948 19.464 17.748 18.624C16.548 17.784 15.096 17.364 13.392 17.364C11.832 17.364 10.476 17.736 9.324 18.48C8.172 19.224 7.272 20.268 6.624 21.612C6 22.956 5.688 24.564 5.688 26.436C5.688 28.308 6 29.928 6.624 31.296C7.272 32.64 8.172 33.684 9.324 34.428C10.476 35.172 11.832 35.544 13.392 35.544C15.096 35.544 16.548 35.124 17.748 34.284C18.948 33.42 19.836 32.244 20.412 30.756L24.3 32.16C23.46 34.416 22.08 36.204 20.16 37.524C18.264 38.844 16.008 39.504 13.392 39.504ZM27.8283 39V13.908H31.8243V25.176L31.1043 25.356C31.4163 24.324 31.8723 23.484 32.4723 22.836C33.0963 22.188 33.8043 21.708 34.5963 21.396C35.3883 21.084 36.2283 20.928 37.1163 20.928C39.1083 20.928 40.6563 21.504 41.7603 22.656C42.8883 23.784 43.4523 25.404 43.4523 27.516V39H39.4563V28.992C39.4563 27.408 39.1683 26.244 38.5923 25.5C38.0163 24.756 37.1283 24.384 35.9283 24.384C34.5843 24.384 33.5643 24.864 32.8683 25.824C32.1723 26.784 31.8243 28.296 31.8243 30.36V39H27.8283ZM47.9377 39V21.252H51.9697V26.04L51.2137 26.148C51.3337 25.116 51.6817 24.216 52.2577 23.448C52.8337 22.656 53.5297 22.044 54.3457 21.612C55.1857 21.156 56.0137 20.928 56.8297 20.928C57.4057 20.928 57.9577 21 58.4857 21.144C59.0137 21.288 59.5657 21.528 60.1417 21.864L58.1977 25.464C57.9337 25.296 57.5857 25.164 57.1537 25.068C56.7457 24.948 56.3497 24.888 55.9657 24.888C55.4617 24.888 54.9577 24.984 54.4537 25.176C53.9737 25.368 53.5417 25.668 53.1577 26.076C52.7737 26.46 52.4857 26.964 52.2937 27.588C52.1737 27.924 52.0777 28.368 52.0057 28.92C51.9577 29.448 51.9337 30.192 51.9337 31.152V39H47.9377ZM63.0188 39V21.252H67.0148V39H63.0188ZM62.8388 18.336V13.908H67.1948V18.336H62.8388ZM77.7161 39.324C76.4441 39.324 75.3161 39.144 74.3321 38.784C73.3481 38.4 72.5201 37.92 71.8481 37.344C71.1761 36.768 70.6241 36.192 70.1921 35.616L72.9281 33.24C73.3841 33.984 74.0081 34.644 74.8001 35.22C75.6161 35.796 76.6001 36.084 77.7521 36.084C78.7121 36.084 79.4681 35.88 80.0201 35.472C80.5961 35.064 80.8841 34.56 80.8841 33.96C80.8841 33.432 80.7041 33.024 80.3441 32.736C79.9841 32.424 79.5161 32.16 78.9401 31.944C78.3641 31.728 77.7281 31.536 77.0321 31.368C76.3601 31.2 75.6761 30.996 74.9801 30.756C74.2841 30.492 73.6361 30.168 73.0361 29.784C72.4601 29.4 71.9921 28.908 71.6321 28.308C71.2721 27.708 71.0921 26.964 71.0921 26.076C71.0921 24.516 71.6921 23.268 72.8921 22.332C74.0921 21.396 75.6641 20.928 77.6081 20.928C79.0001 20.928 80.2721 21.204 81.4241 21.756C82.5761 22.308 83.4761 23.136 84.1241 24.24L81.6401 26.148C81.1601 25.428 80.5601 24.888 79.8401 24.528C79.1201 24.168 78.3401 23.988 77.5001 23.988C76.7321 23.988 76.0841 24.144 75.5561 24.456C75.0521 24.768 74.8001 25.176 74.8001 25.68C74.8001 26.064 74.9201 26.376 75.1601 26.616C75.4001 26.856 75.7721 27.072 76.2761 27.264C76.7801 27.456 77.4161 27.648 78.1841 27.84C78.9041 28.008 79.6481 28.212 80.4161 28.452C81.1841 28.692 81.8921 29.016 82.5401 29.424C83.2121 29.808 83.7521 30.336 84.1601 31.008C84.5921 31.656 84.8081 32.496 84.8081 33.528C84.8081 34.68 84.5081 35.7 83.9081 36.588C83.3321 37.452 82.5041 38.124 81.4241 38.604C80.3681 39.084 79.1321 39.324 77.7161 39.324ZM108.765 39.504C106.509 39.504 104.505 38.964 102.753 37.884C101.001 36.804 99.633 35.28 98.649 33.312C97.665 31.344 97.173 29.052 97.173 26.436C97.173 23.82 97.665 21.54 98.649 19.596C99.657 17.628 101.049 16.104 102.825 15.024C104.601 13.944 106.665 13.404 109.017 13.404C111.633 13.404 113.889 14.052 115.785 15.348C117.705 16.644 119.085 18.444 119.925 20.748L116.037 22.152C115.461 20.64 114.573 19.464 113.373 18.624C112.173 17.784 110.721 17.364 109.017 17.364C107.457 17.364 106.101 17.736 104.949 18.48C103.797 19.224 102.897 20.268 102.249 21.612C101.625 22.956 101.313 24.564 101.313 26.436C101.313 28.308 101.625 29.928 102.249 31.296C102.897 32.64 103.797 33.684 104.949 34.428C106.101 35.172 107.457 35.544 109.017 35.544C109.833 35.544 110.661 35.436 111.501 35.22C112.341 34.98 113.121 34.584 113.841 34.032C114.561 33.48 115.137 32.712 115.569 31.728C116.025 30.72 116.253 29.46 116.253 27.948V26.364L117.189 29.244H110.025V25.536H119.925V39H116.253L115.677 34.644L116.397 35.22C115.941 36.18 115.329 36.984 114.561 37.632C113.817 38.256 112.941 38.724 111.933 39.036C110.949 39.348 109.893 39.504 108.765 39.504ZM124.367 39V21.252H128.363V39H124.367ZM124.187 18.336V13.908H128.543V18.336H124.187ZM136.94 39.324C135.788 39.324 134.828 38.976 134.06 38.28C133.292 37.56 132.908 36.42 132.908 34.86V13.908H136.904V34.068C136.904 34.62 137.024 35.028 137.264 35.292C137.528 35.532 137.864 35.652 138.272 35.652C138.488 35.652 138.704 35.628 138.92 35.58C139.16 35.532 139.4 35.472 139.64 35.4V38.784C139.184 38.976 138.716 39.108 138.236 39.18C137.756 39.276 137.324 39.324 136.94 39.324ZM146.784 39.324C145.632 39.324 144.672 38.976 143.904 38.28C143.136 37.56 142.752 36.42 142.752 34.86V13.908H146.748V34.068C146.748 34.62 146.868 35.028 147.108 35.292C147.372 35.532 147.708 35.652 148.116 35.652C148.332 35.652 148.548 35.628 148.764 35.58C149.004 35.532 149.244 35.472 149.484 35.4V38.784C149.028 38.976 148.56 39.108 148.08 39.18C147.6 39.276 147.168 39.324 146.784 39.324ZM152.667 39V21.252H156.663V39H152.667ZM152.487 18.336V13.908H156.843V18.336H152.487ZM167.365 39.324C166.093 39.324 164.965 39.144 163.981 38.784C162.997 38.4 162.169 37.92 161.497 37.344C160.825 36.768 160.273 36.192 159.841 35.616L162.577 33.24C163.033 33.984 163.657 34.644 164.449 35.22C165.265 35.796 166.249 36.084 167.401 36.084C168.361 36.084 169.117 35.88 169.669 35.472C170.245 35.064 170.533 34.56 170.533 33.96C170.533 33.432 170.353 33.024 169.993 32.736C169.633 32.424 169.165 32.16 168.589 31.944C168.013 31.728 167.377 31.536 166.681 31.368C166.009 31.2 165.325 30.996 164.629 30.756C163.933 30.492 163.285 30.168 162.685 29.784C162.109 29.4 161.641 28.908 161.281 28.308C160.921 27.708 160.741 26.964 160.741 26.076C160.741 24.516 161.341 23.268 162.541 22.332C163.741 21.396 165.313 20.928 167.257 20.928C168.649 20.928 169.921 21.204 171.073 21.756C172.225 22.308 173.125 23.136 173.773 24.24L171.289 26.148C170.809 25.428 170.209 24.888 169.489 24.528C168.769 24.168 167.989 23.988 167.149 23.988C166.381 23.988 165.733 24.144 165.205 24.456C164.701 24.768 164.449 25.176 164.449 25.68C164.449 26.064 164.569 26.376 164.809 26.616C165.049 26.856 165.421 27.072 165.925 27.264C166.429 27.456 167.065 27.648 167.833 27.84C168.553 28.008 169.297 28.212 170.065 28.452C170.833 28.692 171.541 29.016 172.189 29.424C172.861 29.808 173.401 30.336 173.809 31.008C174.241 31.656 174.457 32.496 174.457 33.528C174.457 34.68 174.157 35.7 173.557 36.588C172.981 37.452 172.153 38.124 171.073 38.604C170.017 39.084 168.781 39.324 167.365 39.324Z" fill="#1F1F1F"/>
<circle cx="184" cy="35" r="4" fill="#1A791D"/>
</svg>
