<svg width="88" height="88" viewBox="0 0 88 88" fill="none" xmlns="http://www.w3.org/2000/svg">
<circle cx="49.804" cy="44.7586" r="38.1959" fill="black"/>
<path fill-rule="evenodd" clip-rule="evenodd" d="M44 82.6988C65.3728 82.6988 82.6988 65.3728 82.6988 44C82.6988 22.6272 65.3728 5.3012 44 5.3012C22.6272 5.3012 5.3012 22.6272 5.3012 44C5.3012 65.3728 22.6272 82.6988 44 82.6988ZM44 88C68.3005 88 88 68.3005 88 44C88 19.6995 68.3005 0 44 0C19.6995 0 0 19.6995 0 44C0 68.3005 19.6995 88 44 88Z" fill="black"/>
<path d="M36.459 60.1839C43.2045 60.1839 48.275 56.8694 50.5386 50.7399L45.2418 48.7421C43.8836 52.7376 40.8051 54.7808 36.459 54.7808C30.3926 54.7808 26.8161 50.7399 26.8161 43.6114C26.8161 36.5284 30.3473 32.5328 36.459 32.5328C40.7598 32.5328 43.8383 34.4852 45.2418 38.4353L50.448 36.3922C48.1392 30.3534 43.114 27.1297 36.459 27.1297C27.133 27.1297 21.1571 33.5317 21.1571 43.6568C21.1571 53.7819 27.133 60.1839 36.459 60.1839Z" fill="#EFEFEF"/>
<path d="M61.1501 41.9918H60.0219V43.12V48.3415V49.4697H61.1501H67.1708C67.0234 50.9517 66.412 52.0711 65.4518 52.8627C64.3123 53.8021 62.549 54.3872 60.137 54.3872C57.1007 54.3872 54.8135 53.4656 53.2785 51.8405C51.7353 50.2067 50.8121 47.7134 50.8121 44.3006C50.8121 41.0138 51.6721 38.5536 53.1172 36.9286C54.5464 35.3216 56.6681 34.3956 59.4923 34.3956C61.4834 34.3956 63.1349 34.854 64.4306 35.6993C65.7195 36.5401 66.7271 37.8092 67.3662 39.5573L67.7605 40.6358L68.8319 40.2225L74.1276 38.1793L75.1857 37.771L74.7719 36.7151C72.2378 30.2482 66.5416 26.7361 59.5844 26.7361C54.4795 26.7361 50.2565 28.6227 47.3169 31.8166C44.3866 35.0002 42.7995 39.4069 42.7995 44.346C42.7995 49.6274 44.61 54.0645 47.676 57.1857C50.7409 60.3057 54.9982 62.0467 59.7686 62.0467C63.2245 62.0467 66.3583 61.1177 68.5908 59.2835L68.8416 60.4706L69.0307 61.3656H69.9454H74.0438H75.172V60.2374V43.12V41.9918H74.0438H61.1501Z" fill="#EFEFEF" stroke="black" stroke-width="2.25641"/>
</svg>
