<?xml version="1.0" encoding="UTF-8"?>
<svg width="22px" height="20px" viewBox="0 0 22 20" version="1.1" xmlns="http://www.w3.org/2000/svg" xmlns:xlink="http://www.w3.org/1999/xlink">
    <!-- Generator: Sketch 54.1 (76490) - https://sketchapp.com -->
    <title>file-structure</title>
    <desc>Created with Sketch.</desc>
    <g id="Page-1" stroke="none" stroke-width="1" fill="none" fill-rule="evenodd">
        <g id="light" transform="translate(-208.000000, -54.000000)" fill="#000000" fill-rule="nonzero">
            <g id="file-structure" transform="translate(208.000000, 54.000000)">
                <path d="M15.15,10.36 L1.25,10.36 C0.973857625,10.36 0.75,10.1361424 0.75,9.86 L0.75,5.22 C0.75,4.94385763 0.973857625,4.72 1.25,4.72 L15.15,4.72 C15.4261424,4.72 15.65,4.94385763 15.65,5.22 L15.65,9.86 C15.65,10.1361424 15.4261424,10.36 15.15,10.36 Z M1.75,9.36 L14.65,9.36 L14.65,5.72 L1.75,5.72 L1.75,9.36 Z" id="Shape"></path>
                <path d="M15.15,19.82 L1.25,19.82 C0.973857625,19.82 0.75,19.5961424 0.75,19.32 L0.75,14.68 C0.75,14.4038576 0.973857625,14.18 1.25,14.18 L15.15,14.18 C15.4261424,14.18 15.65,14.4038576 15.65,14.68 L15.65,19.32 C15.65,19.5961424 15.4261424,19.82 15.15,19.82 Z M1.75,18.82 L14.65,18.82 L14.65,15.18 L1.75,15.18 L1.75,18.82 Z" id="Shape"></path>
                <path d="M20.75,17.5 L15.15,17.5 C14.8738576,17.5 14.65,17.2761424 14.65,17 C14.65,16.7238576 14.8738576,16.5 15.15,16.5 L20.25,16.5 L20.25,0.68 C20.25,0.403857625 20.4738576,0.18 20.75,0.18 C21.0261424,0.18 21.25,0.403857625 21.25,0.68 L21.25,17 C21.25,17.2761424 21.0261424,17.5 20.75,17.5 Z" id="Path"></path>
                <path d="M20.75,8 L15.15,8 C14.8738576,8 14.65,7.77614237 14.65,7.5 C14.65,7.22385763 14.8738576,7 15.15,7 L20.75,7 C21.0261424,7 21.25,7.22385763 21.25,7.5 C21.25,7.77614237 21.0261424,8 20.75,8 Z" id="Path"></path>
            </g>
        </g>
    </g>
</svg>