<?xml version="1.0" encoding="UTF-8"?>
<svg width="22px" height="22px" viewBox="0 0 22 22" version="1.1" xmlns="http://www.w3.org/2000/svg" xmlns:xlink="http://www.w3.org/1999/xlink">
    <!-- Generator: Sketch 54.1 (76490) - https://sketchapp.com -->
    <title>square-vice-versa-alt</title>
    <desc>Created with Sketch.</desc>
    <g id="Page-1" stroke="none" stroke-width="1" fill="none" fill-rule="evenodd">
        <g id="light" transform="translate(0.000000, -53.000000)" fill="#000000" fill-rule="nonzero">
            <g id="square-vice-versa-alt" transform="translate(0.000000, 53.000000)">
                <path d="M17.7,21.5 L4.3,21.5 C2.20359835,21.4945048 0.505495183,19.7964017 0.5,17.7 L0.5,4.3 C0.505495183,2.20359835 2.20359835,0.505495183 4.3,0.5 L17.7,0.5 C19.7964017,0.505495183 21.4945048,2.20359835 21.5,4.3 L21.5,17.7 C21.4945048,19.7964017 19.7964017,21.4945048 17.7,21.5 Z M4.3,1.5 C2.75588053,1.50548538 1.50548538,2.75588053 1.5,4.3 L1.5,17.7 C1.50548538,19.2441195 2.75588053,20.4945146 4.3,20.5 L17.7,20.5 C19.2441195,20.4945146 20.4945146,19.2441195 20.5,17.7 L20.5,4.3 C20.4945146,2.75588053 19.2441195,1.50548538 17.7,1.5 L4.3,1.5 Z" id="Shape"></path>
                <path d="M12.52,9.94 C12.3881154,9.93812148 12.2623152,9.88420713 12.17,9.79 C12.0753437,9.6961167 12.0221008,9.56831877 12.0221008,9.435 C12.0221008,9.30168123 12.0753437,9.1738833 12.17,9.08 L13.79,7.46 L7.69,7.45999131 C7.41385763,7.46 7.19,7.23614237 7.19,6.95999131 C7.19,6.68385763 7.41385763,6.46 7.69,6.45999131 L15,6.46 C15.2018544,6.45881427 15.3846226,6.57912041 15.4633459,6.76499469 C15.5420691,6.95086897 15.501304,7.16584807 15.36,7.31 L12.88,9.79 C12.7846117,9.88571974 12.6551336,9.93966896 12.52,9.94 Z" id="Path"></path>
                <path d="M15,7.46 C14.8678819,7.45923058 14.7416731,7.40514108 14.65,7.31 L12.17,4.83 C12.0753437,4.7361167 12.0221008,4.60831877 12.0221008,4.475 C12.0221008,4.34168123 12.0753437,4.2138833 12.17,4.12 C12.3678137,3.92821671 12.6821863,3.92821671 12.88,4.12 L15.36,6.6 C15.5517833,6.79781368 15.5517833,7.11218632 15.36,7.31 C15.2646117,7.40571974 15.1351336,7.45966896 15,7.46 Z" id="Path"></path>
                <path d="M9.48,18 C9.34684315,17.9993157 9.21863425,17.9494567 9.12,17.86 L6.64,15.4 C6.50157062,15.2533779 6.46252834,15.0389601 6.54039117,14.8529544 C6.61825401,14.6669488 6.79840047,14.5442844 7,14.54 L14.33,14.54 C14.6061424,14.54 14.83,14.7638576 14.83,15.04 C14.83,15.3161424 14.6061424,15.54 14.33,15.54 L8.2,15.54 L9.83,17.17 C9.92465633,17.2638833 9.97789916,17.3916812 9.97789916,17.525 C9.97789916,17.6583188 9.92465633,17.7861167 9.83,17.88 C9.73199098,17.9615574 9.60743311,18.0042629 9.48,18 L9.48,18 Z" id="Path"></path>
                <path d="M7,15.54 C6.86684315,15.5393157 6.73863425,15.4894567 6.64,15.4 C6.44821671,15.2021863 6.44821671,14.8878137 6.64,14.69 L9.12,12.21 C9.31781368,12.0182167 9.63218632,12.0182167 9.83,12.21 C9.92465633,12.3038833 9.97789916,12.4316812 9.97789916,12.565 C9.97789916,12.6983188 9.92465633,12.8261167 9.83,12.92 L7.35,15.4 C7.25495004,15.4887999 7.13007058,15.5387517 7,15.54 Z" id="Path"></path>
            </g>
        </g>
    </g>
</svg>