<?xml version="1.0" encoding="UTF-8"?>
<svg width="20px" height="22px" viewBox="0 0 20 22" version="1.1" xmlns="http://www.w3.org/2000/svg" xmlns:xlink="http://www.w3.org/1999/xlink">
    <!-- Generator: Sketch 54.1 (76490) - https://sketchapp.com -->
    <title>user-terminal</title>
    <desc>Created with Sketch.</desc>
    <g id="Page-1" stroke="none" stroke-width="1" fill="none" fill-rule="evenodd">
        <g id="light" transform="translate(-417.000000, -53.000000)" fill="#000000" fill-rule="nonzero">
            <g id="user-terminal" transform="translate(417.000000, 53.000000)">
                <path d="M9.05,21.21 C8.91811537,21.2081215 8.79231523,21.1542071 8.7,21.06 C8.60332277,20.9692667 8.54848135,20.8425859 8.54848135,20.71 C8.54848135,20.5774141 8.60332277,20.4507333 8.7,20.36 L10.7,18.36 L8.51,16.2 C8.31942856,16.0055782 8.31942856,15.6944218 8.51,15.5 C8.6038833,15.4053437 8.73168123,15.3521008 8.865,15.3521008 C8.99831877,15.3521008 9.1261167,15.4053437 9.22,15.5 L11.74,18 C11.8376584,18.0940756 11.8919661,18.2244142 11.89,18.36 C11.8892306,18.4921181 11.8351411,18.6183269 11.74,18.71 L9.41,21.04 C9.31798684,21.1430985 9.18807557,21.2044455 9.05,21.21 L9.05,21.21 Z" id="Path"></path>
                <path d="M10.17,11.79 C7.13243388,11.79 4.67,9.32756612 4.67,6.29 C4.67,3.25243388 7.13243388,0.79 10.17,0.79 C13.2075661,0.79 15.67,3.25243388 15.67,6.29 C15.6644963,9.32528349 13.2052835,11.7844963 10.17,11.79 Z M10.17,1.79 C7.68471863,1.79 5.67,3.80471863 5.67,6.29 C5.67,8.77528137 7.68471863,10.79 10.17,10.79 C12.6552814,10.79 14.67,8.77528137 14.67,6.29 C14.6645005,3.80700015 12.6529999,1.79549947 10.17,1.79 Z" id="Shape"></path>
                <path d="M1.17,19.79 C0.893857625,19.79 0.67,19.5661424 0.67,19.29 C0.675510441,14.597864 4.47786402,10.7955104 9.17,10.79 L11.17,10.79 C11.4461424,10.79 11.67,11.0138576 11.67,11.29 C11.67,11.5661424 11.4461424,11.79 11.17,11.79 L9.17,11.79 C5.02786438,11.79 1.67,15.1478644 1.67,19.29 C1.67,19.4226082 1.61732158,19.5497852 1.52355339,19.6435534 C1.4297852,19.7373216 1.30260824,19.79 1.17,19.79 Z" id="Path"></path>
                <path d="M18.83,18.78 L14.77,18.78 C14.4938576,18.78 14.27,18.5561424 14.27,18.28 C14.27,18.0038576 14.4938576,17.78 14.77,17.78 L18.83,17.78 C19.1061424,17.78 19.33,18.0038576 19.33,18.28 C19.33,18.5561424 19.1061424,18.78 18.83,18.78 Z" id="Path"></path>
            </g>
        </g>
    </g>
</svg>